<svg width="287" height="301" viewBox="0 0 287 301" fill="none" xmlns="http://www.w3.org/2000/svg">
<path d="M14.5 0.499878L121 0.500049C126 0.499835 132.7 3.7 133.5 12.5C134.3 21.3 135.5 117.5 136 165H160L187.5 135C189.333 133 197.333 130 202 134C206.667 138 232 166 248 181.5C251.5 184 255 188.5 252.5 195C248.06 206.545 244.5 206.5 255 222.5C263.4 235.3 277.833 259.5 284 270C285.833 275.333 288 287.2 282 292C273.25 299 259.519 303.5 252 296.5C237.5 283 209 257.5 187.5 246.5C166 235.5 145.5 220.5 136 220.5C128.878 220.5 54.1667 219.5 16 222.5C12 223 3 219.7 3 210.5C3 200.5 1.5 114 0.5 69.9999V12C0.5 8.50007 5.3 0.499878 14.5 0.499878Z" fill="#D9D9D9" stroke="black"/>
</svg>
