<svg width="872" height="913" viewBox="0 0 872 913" fill="none" xmlns="http://www.w3.org/2000/svg">
<path d="M621.517 1.03169C496.035 4.35912 263.093 124.132 87.3102 262.88C15.2322 325.543 -26.2862 340.424 20.7201 390.548C62.4948 432.323 89.312 400.562 89.312 400.562C129.004 369.222 214.658 281.624 271.051 239.847C351.359 180.349 462.245 94.5927 560.437 71.6205C638.338 51.8781 662.01 74.8479 651.557 154.233C645.405 222.363 592.979 375.525 592.979 375.525C592.979 375.525 512.352 411.631 488.34 420.585C469.574 427.553 449.949 422.807 447.788 465.646C446.826 511.586 474.703 494.282 493.349 487.173C507.767 481.666 541.771 465.382 554.429 460.136C563.823 452.827 574.177 459.074 568.95 472.655C559.556 502.951 542.511 552.301 510.372 623.354C469.637 720.503 396.6 853.259 387.208 886.704C388.251 908.631 412.141 911.775 443.784 912.237C472.882 909.991 486.34 889.704 486.34 889.704C486.34 889.704 524.251 808.178 582.47 664.906C624.745 560.848 652.441 474.894 664.078 436.102C670.345 413.13 683.865 408.245 701.63 404.061C728.183 395.35 765.454 383.652 788.243 379.526C845.839 365.311 862.401 368.374 869.851 328.462C875.037 300.705 862.843 287.908 862.843 287.908C862.843 287.908 737.335 327.039 712.144 333.97C690.214 343.361 694.118 320.45 694.118 320.45C694.118 320.45 691.054 334.927 704.635 275.389C745.806 94.2704 721.836 46.0655 689.113 18.5501C673.577 5.71402 650.478 0.265138 621.517 1.03169Z" fill="black"/>
</svg>
