<svg width="29" height="10" viewBox="0 0 29 10" fill="none" xmlns="http://www.w3.org/2000/svg">
<g clip-path="url(#clip0_4_2)">
<path fill-rule="evenodd" clip-rule="evenodd" d="M7.52399 9.02401C7.20399 9.02401 6.95999 8.93601 6.79199 8.76001C6.63199 8.58401 6.52399 8.35601 6.46799 8.07601C6.41999 7.79601 6.41599 7.48001 6.45599 7.12801C6.50399 6.77601 6.57599 6.42001 6.67199 6.06001C6.58399 6.22001 6.46399 6.43201 6.31199 6.69601C6.16799 6.95201 6.01599 7.21601 5.85599 7.48801C5.69599 7.76001 5.53999 8.01601 5.38799 8.25601C5.24399 8.48801 5.13199 8.65601 5.05199 8.76001C4.97199 8.86401 4.88399 8.93601 4.78799 8.97601C4.69999 9.00801 4.61999 9.01601 4.54799 9.00001C4.47599 8.98401 4.42399 8.94401 4.39199 8.88001C4.35999 8.81601 4.35999 8.73202 4.39199 8.62802C4.42399 8.52402 4.47199 8.36401 4.53599 8.14801C4.59999 7.93201 4.66399 7.68401 4.72799 7.40401C4.79999 7.12401 4.85999 6.82401 4.90799 6.50401C4.95599 6.17601 4.98399 5.85201 4.99199 5.53201C4.68799 6.24401 4.39199 6.82801 4.10399 7.28401C3.81599 7.73201 3.53199 8.08401 3.25199 8.34001C2.97199 8.59601 2.69999 8.77201 2.43599 8.86801C2.17199 8.96401 1.91999 9.01201 1.67999 9.01201C1.43999 9.01201 1.21599 8.97601 1.00799 8.90401C0.799995 8.82401 0.619995 8.72001 0.467995 8.59201C0.323995 8.45601 0.211995 8.30001 0.131995 8.12401C0.0599949 7.94001 0.0359949 7.74401 0.0599949 7.53601C0.0919949 7.19201 0.183995 6.93201 0.335995 6.75601C0.495995 6.57201 0.675995 6.44401 0.875995 6.37201C1.07599 6.29202 1.27199 6.26001 1.46399 6.27601C1.65599 6.28401 1.80799 6.30801 1.91999 6.34801C2.02399 6.39601 2.09599 6.46001 2.13599 6.54001C2.18399 6.62001 2.19999 6.69601 2.18399 6.76801C2.17599 6.84001 2.13999 6.89601 2.07599 6.93601C2.01999 6.97601 1.94399 6.97601 1.84799 6.93601C1.68799 6.87201 1.54399 6.86401 1.41599 6.91201C1.28799 6.95201 1.18399 7.02401 1.10399 7.12801C1.02399 7.22401 0.971995 7.34001 0.947995 7.47601C0.923995 7.61201 0.931995 7.74401 0.971995 7.87201C1.01999 7.99201 1.10399 8.09601 1.22399 8.18401C1.35199 8.26401 1.52799 8.30401 1.75199 8.30401C2.06399 8.30401 2.35199 8.18001 2.61599 7.93201C2.87999 7.68401 3.13599 7.35601 3.38399 6.94801C3.63199 6.53201 3.87199 6.06401 4.10399 5.54401C4.33599 5.02401 4.57599 4.49201 4.82399 3.94801C5.07199 3.39601 5.32799 2.85601 5.59199 2.32801C5.85599 1.80001 6.14399 1.32801 6.45599 0.912015C6.52799 0.808015 6.61599 0.744014 6.71999 0.720014C6.83199 0.688015 6.92799 0.688015 7.00799 0.720014C7.09599 0.752014 7.15199 0.812015 7.17599 0.900015C7.20799 0.980015 7.18399 1.08001 7.10399 1.20001C7.04799 1.28001 6.97599 1.42001 6.88799 1.62001C6.80799 1.82001 6.71599 2.05601 6.61199 2.32801C6.51599 2.60001 6.41999 2.90001 6.32399 3.22801C6.22799 3.54801 6.14399 3.87201 6.07199 4.20001C5.99999 4.52001 5.94399 4.83201 5.90399 5.13601C5.86399 5.43201 5.85199 5.69601 5.86799 5.92801C6.09199 5.58401 6.32799 5.23202 6.57599 4.87201C6.82399 4.50401 7.07199 4.14801 7.31999 3.80401C7.56799 3.45201 7.80799 3.11601 8.03999 2.79601C8.27199 2.46801 8.48399 2.18001 8.67599 1.93201C8.86799 1.67601 9.032 1.46401 9.168 1.29601C9.312 1.12001 9.41599 1.00401 9.47999 0.948015C9.57599 0.868015 9.68 0.820014 9.792 0.804015C9.904 0.780014 10 0.784014 10.08 0.816015C10.16 0.848015 10.208 0.908015 10.224 0.996014C10.24 1.07601 10.2 1.18001 10.104 1.30801C9.68 1.90801 9.304 2.50001 8.976 3.08401C8.648 3.66001 8.36399 4.20801 8.12399 4.72801C7.89199 5.24001 7.70399 5.71601 7.55999 6.15601C7.42399 6.58801 7.33199 6.96401 7.28399 7.28401C7.24399 7.59601 7.25199 7.84401 7.30799 8.02801C7.37199 8.20401 7.48799 8.29201 7.65599 8.29201C7.71199 8.29201 7.77999 8.28001 7.85999 8.25601C7.94799 8.22401 8.03999 8.18401 8.13599 8.13601C8.23199 8.08801 8.32399 8.03201 8.41199 7.96801C8.50799 7.90401 8.59199 7.83601 8.66399 7.76401C8.80799 7.62001 8.916 7.50801 8.988 7.42801C9.068 7.34001 9.08984 7.28401 9.22124 7.20001C9.29324 7.08001 9.36925 6.94801 9.44925 6.80401C9.52925 6.65201 9.60925 6.50401 9.68925 6.36001C9.77725 6.21601 9.85724 6.08001 9.92924 5.95201C10.0093 5.82401 10.0773 5.71601 10.1333 5.62801C10.2053 5.51601 10.2973 5.44401 10.4093 5.41201C10.5213 5.38001 10.6213 5.38001 10.7093 5.41201C10.8053 5.44401 10.8773 5.50001 10.9253 5.58001C10.9733 5.65201 10.9653 5.74001 10.9013 5.84401C10.8133 5.99601 10.7133 6.17601 10.6013 6.38401C10.4893 6.58401 10.3893 6.76401 10.3013 6.92401C10.2133 7.08401 10.1253 7.23601 10.0373 7.38001C9.95725 7.52401 9.88925 7.65601 9.83325 7.77601C9.78525 7.89601 9.74925 8.00002 9.72525 8.08802C9.70925 8.16802 9.72124 8.22401 9.76124 8.25601C9.80124 8.29601 9.85724 8.30801 9.92924 8.29201C10.0093 8.26801 10.0933 8.22801 10.1813 8.17201C10.2693 8.11601 10.3573 8.05201 10.4453 7.98001C10.5333 7.90801 10.6133 7.83601 10.6853 7.76401C10.8213 7.62001 10.9293 7.50801 11.0093 7.42801C11.0893 7.34001 11.1813 7.22801 11.2853 7.09201C11.4453 6.90801 11.6172 6.68001 11.8012 6.40801C11.9852 6.12801 12.1532 5.87201 12.3052 5.64001C12.2092 5.52001 12.1332 5.37601 12.0772 5.20801C12.0292 5.03201 12.0012 4.85601 11.9932 4.68001C11.9932 4.50401 12.0172 4.34001 12.0652 4.18801C12.1132 4.02801 12.1972 3.90001 12.3172 3.80401C12.4932 3.66801 12.6612 3.60001 12.8212 3.60001C12.9812 3.59201 13.1172 3.63201 13.2292 3.72001C13.3412 3.80801 13.4212 3.93201 13.4692 4.09201C13.5252 4.24401 13.5372 4.40801 13.5052 4.58401C13.4892 4.68801 13.4492 4.80801 13.3852 4.94401C13.3212 5.08001 13.2452 5.22801 13.1572 5.38801C13.2532 5.41201 13.3612 5.41201 13.4812 5.38801C13.6092 5.36401 13.7172 5.37201 13.8052 5.41201C13.8932 5.44401 13.9612 5.49202 14.0092 5.55602C14.0572 5.62002 14.0812 5.69201 14.0812 5.77201C14.0812 5.84401 14.0572 5.90401 14.0092 5.95201C13.9772 5.98401 13.9132 6.05601 13.8172 6.16802C13.7212 6.28002 13.6092 6.41601 13.4812 6.57601C13.3612 6.72801 13.2372 6.89201 13.1092 7.06801C12.9812 7.24401 12.8692 7.41201 12.7732 7.57201C12.6852 7.73201 12.6172 7.87601 12.5692 8.00401C12.5292 8.12401 12.5372 8.20402 12.5932 8.24402C12.6812 8.32402 12.8052 8.33201 12.9652 8.26801C13.1252 8.20401 13.2932 8.10801 13.4692 7.98001C13.6452 7.84401 13.8172 7.69601 13.9852 7.53601C14.1532 7.36801 14.2328 7.30078 14.3426 7.20001C14.4386 6.95201 14.5666 6.72001 14.7266 6.50401C14.8866 6.28001 15.0666 6.08801 15.2666 5.92801C15.4666 5.76001 15.6746 5.62801 15.8906 5.53201C16.1146 5.43601 16.3346 5.38801 16.5506 5.38801C16.7666 5.38801 16.9506 5.43601 17.1026 5.53201C17.2546 5.62801 17.3666 5.76001 17.4386 5.92801C17.5186 6.08801 17.5586 6.28001 17.5586 6.50401C17.5586 6.72001 17.5146 6.95201 17.4266 7.20001C17.4026 7.26401 17.3786 7.32401 17.3546 7.38001C17.3306 7.43601 17.3026 7.49201 17.2706 7.54801C17.3906 7.55601 17.5266 7.51601 17.6786 7.42801C17.8386 7.34001 17.9746 7.22801 18.0866 7.09201C18.2226 6.80401 18.382 6.44002 18.502 6.16802C18.63 5.89601 18.738 5.66401 18.826 5.47201C18.858 5.40001 18.926 5.35601 19.03 5.34001C19.134 5.31601 19.234 5.31601 19.33 5.34001C19.434 5.36401 19.518 5.40801 19.582 5.47201C19.646 5.53601 19.658 5.61601 19.618 5.71201L19.546 5.85601L19.594 5.82001C19.818 5.62801 20.01 5.50001 20.17 5.43601C20.33 5.37201 20.466 5.34801 20.578 5.36401C20.698 5.38001 20.794 5.42801 20.866 5.50801C20.946 5.58801 21.01 5.68001 21.058 5.78401C21.13 5.94401 21.13 6.12401 21.058 6.32401C20.994 6.51601 20.894 6.73601 20.758 6.98401C20.67 7.16001 20.578 7.32801 20.482 7.48801C20.386 7.64001 20.29 7.80001 20.194 7.96801C20.146 8.05601 20.122 8.11601 20.122 8.14801C20.13 8.17201 20.15 8.18001 20.182 8.17201C20.222 8.16401 20.266 8.14801 20.314 8.12401C20.362 8.09201 20.406 8.06001 20.446 8.02801C20.622 7.89201 20.794 7.73601 20.962 7.56001C21.138 7.38401 21.278 7.22801 21.382 7.09201C21.478 6.84401 21.5627 6.72001 21.7227 6.50401C21.8827 6.28001 22.0627 6.08801 22.2627 5.92801C22.4627 5.76001 22.6707 5.62801 22.8867 5.53201C23.1107 5.43601 23.3307 5.38801 23.5467 5.38801C23.7627 5.38801 23.9467 5.43601 24.0987 5.53201C24.2507 5.62801 24.3627 5.76001 24.4347 5.92801C24.5147 6.08801 24.5547 6.28001 24.5547 6.50401C24.5547 6.72001 24.5107 6.95201 24.4227 7.20001C24.3987 7.26401 24.3747 7.32401 24.3507 7.38001C24.3267 7.43601 24.2987 7.49201 24.2667 7.54801C24.3867 7.55601 24.5227 7.51601 24.6747 7.42801L24.6792 7.42556C24.8374 7.33851 24.9831 7.25838 25.0551 7.1334C25.2071 6.8694 25.5861 6.20401 25.7381 5.98801C25.8981 5.77201 26.0341 5.60401 26.1461 5.48401C26.2021 5.42801 26.2781 5.39601 26.3741 5.38801C26.4781 5.37201 26.5741 5.38001 26.6621 5.41201C26.7501 5.43601 26.8141 5.48001 26.8541 5.54401C26.9021 5.60801 26.8981 5.68401 26.8421 5.77201C26.8021 5.83601 26.7301 5.94001 26.6261 6.08401C26.5301 6.22001 26.4221 6.37601 26.3021 6.55201C26.1821 6.72801 26.0621 6.91201 25.9421 7.10401C25.8301 7.28801 25.7381 7.46001 25.6661 7.62001C25.6021 7.78001 25.5701 7.91201 25.5701 8.01601C25.5781 8.11201 25.6421 8.16001 25.7621 8.16001C25.8821 8.16001 26.0101 8.10001 26.1461 7.98001C26.2901 7.86001 26.4301 7.70801 26.5661 7.52401C26.7021 7.34001 26.8341 7.14001 26.9621 6.92401C27.0901 6.70801 27.2061 6.50401 27.3101 6.31201C27.4141 6.11201 27.4981 5.94001 27.5621 5.79601C27.6341 5.65201 27.6821 5.56001 27.7061 5.52001C27.7381 5.46401 27.8021 5.42401 27.8981 5.40001C27.9941 5.37601 28.0901 5.37601 28.1861 5.40001C28.2821 5.41601 28.3581 5.45201 28.4141 5.50801C28.4781 5.56401 28.4861 5.64001 28.4381 5.73601C28.4141 5.78401 28.3741 5.86801 28.3181 5.98801C28.2621 6.10801 28.1901 6.24801 28.1021 6.40801C28.0221 6.56801 27.9221 6.74401 27.8021 6.93601C27.6901 7.12801 27.5701 7.32001 27.4421 7.51201C27.4981 7.53601 27.5661 7.54401 27.6461 7.53601C27.7261 7.52801 27.8101 7.50402 27.8981 7.46402C27.9861 7.42402 28.0701 7.37201 28.1501 7.30801C28.2301 7.24401 28.3021 7.17201 28.3661 7.09201C28.4221 7.02001 28.4901 6.98401 28.5701 6.98401C28.6501 6.97601 28.7221 6.98801 28.7861 7.02001C28.8581 7.05201 28.9101 7.10401 28.9421 7.17601C28.9741 7.24001 28.9661 7.30801 28.9181 7.38001C28.8541 7.47601 28.7541 7.58801 28.6181 7.71601C28.4821 7.84401 28.3221 7.95601 28.1381 8.05201C27.9621 8.14001 27.7741 8.19602 27.5741 8.22002C27.3741 8.24402 27.1781 8.20402 26.9861 8.10002C26.7621 8.35602 26.5221 8.57201 26.2661 8.74801C26.0181 8.91601 25.7621 9.00001 25.4981 9.00001C25.1941 9.00001 24.9821 8.93201 24.8621 8.79601C24.7421 8.65201 24.6747 8.33984 24.7225 8.10002C24.5545 8.18802 24.5547 8.18002 24.3627 8.22002C24.1787 8.25202 23.9987 8.23201 23.8227 8.16001C23.5907 8.41601 23.3307 8.62001 23.0427 8.77201C22.7627 8.92401 22.4827 9.00001 22.2027 9.00001C21.9947 9.00001 21.8147 8.95201 21.6627 8.85601C21.5107 8.76001 21.3987 8.63201 21.3267 8.47201C21.288 8.39468 21.2587 8.3108 21.2387 8.22038L21.2067 8.23828C21.1027 8.35028 21.026 8.42402 20.914 8.52002C20.698 8.71202 20.502 8.84401 20.326 8.91601C20.158 8.98801 20.006 9.02001 19.87 9.01201C19.742 9.01201 19.634 8.97601 19.546 8.90401C19.458 8.83201 19.39 8.74402 19.342 8.64002C19.262 8.48002 19.25 8.30402 19.306 8.11202C19.37 7.91202 19.47 7.68401 19.606 7.42801C19.638 7.36401 19.678 7.28801 19.726 7.20001L19.87 6.93601C19.926 6.84001 19.974 6.75201 20.014 6.67201C20.062 6.58401 20.106 6.51201 20.146 6.45601C20.194 6.36801 20.214 6.31201 20.206 6.28801C20.198 6.25601 20.17 6.24401 20.122 6.25201C20.082 6.26001 20.034 6.28001 19.978 6.31201C19.922 6.33601 19.87 6.36401 19.822 6.39601C19.694 6.48401 19.562 6.58401 19.426 6.69601C19.29 6.80001 19.166 6.90801 19.054 7.02001C18.974 7.21201 18.89 7.40401 18.802 7.59601C18.722 7.78801 18.646 7.96801 18.574 8.13601C18.502 8.30401 18.438 8.44801 18.382 8.56801C18.334 8.68801 18.298 8.77201 18.274 8.82001C18.218 8.93201 18.13 9.00401 18.01 9.03601C17.89 9.06801 17.778 9.06401 17.674 9.02401C17.562 8.99201 17.478 8.92801 17.422 8.83201C17.366 8.72801 17.374 8.60001 17.446 8.44801C17.4829 8.36611 17.527 8.27162 17.5786 8.16456C17.5096 8.18645 17.439 8.20494 17.3666 8.22002C17.1826 8.25202 17.0026 8.23201 16.8266 8.16001C16.5946 8.41601 16.3346 8.62001 16.0466 8.77201C15.7666 8.92401 15.4866 9.00001 15.2066 9.00001C14.9986 9.00001 14.8186 8.95201 14.6666 8.85601C14.5146 8.76001 14.4026 8.63201 14.3306 8.47201C14.285 8.38082 14.2524 8.28053 14.2328 8.17115C14.0683 8.32146 13.8898 8.46175 13.6972 8.59201C13.4332 8.76801 13.1612 8.89601 12.8812 8.97601C12.6012 9.05601 12.3412 9.03201 12.1012 8.90401C11.8932 8.80001 11.7772 8.63601 11.7532 8.41201C11.7292 8.18801 11.7692 7.94801 11.8732 7.69201C11.9772 7.42801 12.1252 7.16401 12.3172 6.90001C12.5092 6.63601 12.7172 6.41201 12.9412 6.22801C13.0052 6.17201 13.0372 6.13601 13.0372 6.12001C13.0452 6.09601 12.9652 6.05201 12.7972 5.98801C12.5972 6.30001 12.4012 6.58802 12.2092 6.85202C12.0252 7.11602 11.9013 7.29201 11.8373 7.38001C11.7573 7.48401 11.6493 7.61601 11.5133 7.77601C11.3853 7.93601 11.2133 8.12001 10.9973 8.32801C10.8613 8.45601 10.7373 8.56402 10.6253 8.65202C10.5133 8.74002 10.4013 8.81201 10.2893 8.86801C10.1773 8.92401 10.0613 8.96401 9.94125 8.98801C9.82125 9.01201 9.68925 9.02401 9.54525 9.02401C9.13725 9.02401 8.90124 8.86001 8.83724 8.53201C8.81641 8.53201 8.716 8.56402 8.604 8.65202C8.492 8.74002 8.37999 8.81201 8.26799 8.86801C8.15599 8.92401 8.03999 8.96401 7.91999 8.98801C7.79999 9.01201 7.66799 9.02401 7.52399 9.02401ZM12.6652 4.28401C12.7052 4.22801 12.7572 4.20001 12.8212 4.20001C12.8692 4.20001 12.9012 4.22801 12.9172 4.28401C12.9332 4.33201 12.9332 4.39601 12.9172 4.47601C12.9012 4.55601 12.8732 4.64401 12.8332 4.74001C12.7932 4.83601 12.7492 4.93201 12.7012 5.02801C12.6532 4.94001 12.6212 4.84801 12.6052 4.75201C12.5892 4.65601 12.5852 4.56801 12.5932 4.48801C12.6092 4.40001 12.6332 4.33201 12.6652 4.28401ZM16.7666 6.44401C16.8306 6.63601 16.7986 6.87201 16.6706 7.15201C16.6066 7.28801 16.5306 7.42001 16.4426 7.54801C16.3546 7.66801 16.2546 7.77601 16.1426 7.87201C16.0386 7.96001 15.9266 8.03202 15.8066 8.08802C15.6946 8.13602 15.5866 8.16001 15.4826 8.16001C15.2746 8.16001 15.1386 8.06402 15.0746 7.87201C15.0106 7.67201 15.0386 7.43201 15.1586 7.15201C15.2146 7.00801 15.2906 6.87601 15.3866 6.75601C15.4826 6.63601 15.5826 6.53201 15.6866 6.44401C15.7986 6.34801 15.9106 6.27601 16.0226 6.22801C16.1426 6.17201 16.2546 6.14401 16.3586 6.14401C16.5666 6.14401 16.7026 6.24401 16.7666 6.44401ZM23.7627 6.44401C23.8267 6.63601 23.7947 6.87201 23.6667 7.15201C23.6027 7.28801 23.5267 7.42001 23.4387 7.54801C23.3507 7.66801 23.2507 7.77601 23.1387 7.87201C23.0347 7.96001 22.9227 8.03202 22.8027 8.08802C22.6907 8.13602 22.5827 8.16001 22.4787 8.16001C22.2707 8.16001 22.1347 8.06402 22.0707 7.87201C22.0067 7.67201 22.0347 7.43201 22.1547 7.15201C22.2107 7.00801 22.2867 6.87601 22.3827 6.75601C22.4787 6.63601 22.5787 6.53201 22.6827 6.44401C22.7947 6.34801 22.9067 6.27601 23.0187 6.22801C23.1387 6.17201 23.2507 6.14401 23.3547 6.14401C23.5627 6.14401 23.6987 6.24401 23.7627 6.44401Z" fill="black"/>
<path fill-rule="evenodd" clip-rule="evenodd" d="M11.6213 4.60801C11.6853 4.54401 11.7373 4.48001 11.7773 4.41601C11.8413 4.30401 11.8493 4.20801 11.8013 4.12801C11.7533 4.04801 11.6813 3.99201 11.5853 3.96001C11.4893 3.92801 11.3853 3.92401 11.2733 3.94801C11.1613 3.96401 11.0733 4.02001 11.0093 4.11601C10.9693 4.18001 10.9253 4.25201 10.8773 4.33201C10.8293 4.40401 10.7933 4.46401 10.7693 4.51201C10.6973 4.62401 10.6733 4.71201 10.6973 4.77601C10.7293 4.84001 10.7813 4.88001 10.8533 4.89601C10.9333 4.91201 11.0293 4.90801 11.1413 4.88401C11.2533 4.86001 11.3613 4.81601 11.4653 4.75201C11.5053 4.72001 11.5573 4.67201 11.6213 4.60801Z" fill="black"/>
</g>
<defs>
<clipPath id="clip0_4_2">
<rect width="29" height="10" fill="white"/>
</clipPath>
</defs>
</svg>
